<svg width="71" height="83" viewBox="0 0 71 83" fill="none" xmlns="http://www.w3.org/2000/svg">
<path d="M35.0566 6.51874L36.8992 5.76569C41.2459 3.97721 46.0177 4.02427 50.3172 5.81276C54.6638 7.64831 58.0183 10.99 59.7664 15.32L66.7588 32.3576L70.8692 30.6633L63.924 13.6727C61.6562 8.26016 57.4513 4.02427 52.0652 1.71807C46.6319 -0.541068 40.6317 -0.588133 35.1984 1.67101L33.3558 2.37699C28.1587 4.49493 24.0483 8.44842 21.686 13.5315C20.5048 16.3554 19.9851 18.9911 19.7961 20.4501C19.4182 23.98 19.9379 27.604 21.308 30.9927L30.2848 52.8781C33.3085 60.2203 38.6946 63.9856 45.2145 63.5149C43.7499 66.1035 40.9624 67.6567 38.8363 68.5509C35.9543 69.6805 32.9305 69.8688 30.332 69.0216C27.4027 68.0332 25.1349 65.727 23.7648 62.3854L14.6935 40.3117C12.9454 35.9817 12.9927 31.2281 14.788 26.8981C15.355 25.5488 16.0794 24.2938 16.9614 23.1328C16.9614 22.521 16.9141 20.356 17.3866 18.0968C17.5283 17.4379 17.7646 16.7319 17.9535 15.9789C14.788 18.3322 12.2367 21.4385 10.6776 25.2037C8.4098 30.5692 8.36255 36.5465 10.5831 41.959L19.6544 64.0797C21.5442 68.6451 24.7097 71.7984 28.9146 73.2104C30.4737 73.7281 32.1274 73.9634 33.8282 73.9634C36.0488 73.9634 38.3166 73.5399 40.4899 72.6456C40.9939 72.4574 41.4664 72.2534 41.9073 72.0338C40.1592 73.9164 37.9859 75.5166 35.4818 76.505L33.6865 77.258C29.3399 79.0465 24.568 78.9994 20.2213 77.211C15.9219 75.3754 12.5675 71.9867 10.7721 67.6567L4.11039 51.4191L0 53.0664L6.6617 69.351C10.1107 77.8228 18.3787 83 27.072 83C29.8123 83 32.6471 82.4823 35.3401 81.3527L37.1827 80.6467C44.8838 77.4933 50.0337 70.4806 50.7896 62.2442C51.0258 58.7613 50.1282 55.0902 49.5612 53.1135C49.4195 52.784 49.325 52.4075 49.1832 52.078L40.0647 29.769C37.2772 22.9916 31.7966 18.238 25.5602 17.0143L26.1744 16.7319C30.521 14.9905 35.2929 14.9905 39.5923 16.8261C43.9389 18.6145 47.2934 22.0033 49.0415 26.3333L55.7505 42.665C58.0655 48.2657 56.3646 52.8311 53.2464 55.655C53.3409 56.1257 53.4354 56.5963 53.5299 57.114C53.7661 58.2907 53.7661 59.6556 53.7189 60.8322C59.7191 57.1611 63.4516 49.7248 59.8609 40.9706L53.1992 24.6389C50.9786 19.2264 46.7737 14.9905 41.3404 12.7314C37.1355 10.9429 32.5526 10.5664 28.2059 11.5077C30.0013 9.2956 32.3636 7.60124 35.0566 6.51874ZM35.9071 31.4163L45.0728 53.7253C45.8288 55.6079 46.2382 57.3494 46.3012 58.9496C42.0491 59.6556 37.3717 58.3848 34.3952 51.1838L25.4184 29.2984C24.379 26.7098 23.9538 23.98 24.19 21.2502C29.1509 22.0503 33.6393 25.8626 35.9071 31.4163Z" fill="url(#paint0_linear_6577_7232)"/>
<defs>
<linearGradient id="paint0_linear_6577_7232" x1="-43.5978" y1="20.9786" x2="42.8795" y2="-39.8057" gradientUnits="userSpaceOnUse">
<stop stop-color="#099DD8"/>
<stop offset="0.82" stop-color="#5528AD"/>
</linearGradient>
</defs>
</svg>
